<svg width="30" height="30" viewBox="0 0 30 30" fill="none" xmlns="http://www.w3.org/2000/svg">
<circle cx="14.8552" cy="14.8591" r="14.8591" fill="white"/>
<path d="M14.3257 10.12V12.7067C14.3257 12.9208 14.2834 13.1329 14.2013 13.3307C14.1191 13.5285 13.9987 13.7081 13.8469 13.8593C13.6952 14.0104 13.515 14.1301 13.3169 14.2114C13.1188 14.2928 12.9066 14.3342 12.6924 14.3333H10.119C9.90544 14.3346 9.69378 14.2928 9.49675 14.2103C9.29971 14.1278 9.12136 14.0064 8.97238 13.8533C8.82142 13.7031 8.70184 13.5244 8.62058 13.3275C8.53932 13.1307 8.49801 12.9196 8.49904 12.7067V10.1267C8.49904 9.6964 8.6695 9.28366 8.97312 8.97879C9.27674 8.67392 9.68878 8.50176 10.119 8.5H12.699C12.9124 8.50021 13.1236 8.54274 13.3205 8.62513C13.5173 8.70752 13.6958 8.82814 13.8457 8.98C13.9977 9.12843 14.1184 9.30575 14.2008 9.50152C14.2833 9.6973 14.3257 9.90758 14.3257 10.12ZM21.4924 10.1267V12.7067C21.4889 13.1359 21.3173 13.5466 21.0145 13.8507C20.7116 14.1548 20.3016 14.3281 19.8724 14.3333H17.2857C16.8545 14.3307 16.4411 14.161 16.1324 13.86C15.9815 13.7083 15.8621 13.5284 15.7808 13.3305C15.6996 13.1326 15.6582 12.9206 15.659 12.7067V10.1267C15.6581 9.91312 15.7001 9.70158 15.7826 9.50459C15.8651 9.30761 15.9863 9.12921 16.139 8.98C16.2889 8.82814 16.4675 8.70752 16.6643 8.62513C16.8611 8.54274 17.0723 8.50021 17.2857 8.5H19.8657C20.296 8.50348 20.7078 8.67598 21.0121 8.98029C21.3164 9.2846 21.4889 9.69633 21.4924 10.1267ZM21.4924 17.2933V19.8733C21.4889 20.3025 21.3173 20.7133 21.0145 21.0174C20.7116 21.3215 20.3016 21.4948 19.8724 21.5H17.2857C16.8518 21.5044 16.4332 21.3394 16.119 21.04C15.9676 20.8888 15.8477 20.7089 15.7665 20.5109C15.6852 20.3129 15.6442 20.1007 15.6457 19.8867V17.3067C15.6448 17.0931 15.6869 16.8816 15.7693 16.6846C15.8518 16.4876 15.973 16.3092 16.1257 16.16C16.2756 16.0082 16.4542 15.8876 16.651 15.8052C16.8478 15.7228 17.059 15.6802 17.2724 15.68H19.8524C20.2827 15.6835 20.6944 15.856 20.9987 16.1603C21.3031 16.4646 21.4756 16.8763 21.479 17.3067L21.4924 17.2933ZM14.3257 17.3V19.88C14.3205 20.3103 14.1463 20.7214 13.8407 21.0244C13.5352 21.3275 13.1227 21.4983 12.6924 21.5H10.119C9.90605 21.5009 9.695 21.4596 9.49805 21.3785C9.30111 21.2974 9.12217 21.1781 8.97156 21.0275C8.82096 20.8769 8.70166 20.6979 8.62056 20.501C8.53946 20.304 8.49816 20.093 8.49904 19.88V17.3C8.50076 16.8696 8.67157 16.4572 8.97463 16.1517C9.27769 15.8461 9.68871 15.6719 10.119 15.6667H12.699C13.1313 15.6704 13.5451 15.8426 13.8524 16.1467C14.1564 16.4534 14.3266 16.8681 14.3257 17.3Z" fill="#53AEDF"/>
</svg>
